<?xml version="1.0" encoding="UTF-8" standalone="no"?>
<!-- Creator: CorelDRAW X6 -->

<svg
   xmlns:dc="http://purl.org/dc/elements/1.1/"
   xmlns:cc="http://creativecommons.org/ns#"
   xmlns:rdf="http://www.w3.org/1999/02/22-rdf-syntax-ns#"
   xmlns:svg="http://www.w3.org/2000/svg"
   xmlns="http://www.w3.org/2000/svg"
   xmlns:sodipodi="http://sodipodi.sourceforge.net/DTD/sodipodi-0.dtd"
   xmlns:inkscape="http://www.inkscape.org/namespaces/inkscape"
   xml:space="preserve"
   width="64.550003mm"
   height="78.519997mm"
   version="1.1"
   style="clip-rule:evenodd;fill-rule:evenodd;image-rendering:optimizeQuality;shape-rendering:geometricPrecision;text-rendering:geometricPrecision"
   viewBox="0 0 6455.0004 7852"
   id="svg70"
   sodipodi:docname="birthday calendar.svg"
   inkscape:version="0.92.2 (5c3e80d, 2017-08-06)"><metadata
     id="metadata74"><rdf:RDF><cc:Work
         rdf:about=""><dc:format>image/svg+xml</dc:format><dc:type
           rdf:resource="http://purl.org/dc/dcmitype/StillImage" /><dc:title></dc:title></cc:Work></rdf:RDF></metadata><sodipodi:namedview
     pagecolor="#ffffff"
     bordercolor="#666666"
     borderopacity="1"
     objecttolerance="10"
     gridtolerance="10"
     guidetolerance="10"
     inkscape:pageopacity="0"
     inkscape:pageshadow="2"
     inkscape:window-width="1551"
     inkscape:window-height="934"
     id="namedview72"
     showgrid="false"
     inkscape:zoom="1.7745791"
     inkscape:cx="99.291109"
     inkscape:cy="125.97893"
     inkscape:window-x="0"
     inkscape:window-y="27"
     inkscape:window-maximized="0"
     inkscape:current-layer="svg70"
     fit-margin-top="0"
     fit-margin-left="0"
     fit-margin-right="0"
     fit-margin-bottom="10" /><defs
     id="defs4"><style
       type="text/css"
       id="style2"><![CDATA[
    .fil6 {fill:none}
    .fil3 {fill:#A41C5E}
    .fil4 {fill:#E41B41}
    .fil1 {fill:#E4599A}
    .fil2 {fill:#EF7F1A}
    .fil5 {fill:#FEFEFE}
    .fil0 {fill:#2B2A29;fill-rule:nonzero}
   ]]></style></defs><g
     id="_804934848"
     transform="translate(-3922,-6202)"><rect
       style="fill:#e4599a"
       id="rect17"
       ry="723"
       rx="723"
       height="4339"
       width="6455"
       y="8715"
       x="3922"
       class="fil1" /><path
       style="fill:#ef7f1a"
       inkscape:connector-curvature="0"
       id="path19"
       d="m 7479,7192 c 0,-254 -214,-564 -376,-990 100,391 -282,736 -282,990 0,254 82,508 329,508 246,0 329,-254 329,-508 z"
       class="fil2" /><path
       style="fill:#a41c5e"
       inkscape:connector-curvature="0"
       id="path21"
       d="m 3923,9520 c 462,-15 724,858 1099,306 685,-976 1075,725 1692,-79 0,0 440,-489 930,53 0,0 294,454 679,-44 0,0 398,-507 921,18 0,0 271,441 651,43 0,0 203,-305 482,-280 v -123 c 0,-385 -325,-699 -723,-699 H 4646 c -398,0 -723,314 -723,699 z"
       class="fil3" /><path
       style="fill:#e41b41"
       inkscape:connector-curvature="0"
       id="path23"
       d="m 6969,7984 v 731 h 362 v -731 c 0,-82 -68,-149 -150,-149 h -63 c -82,0 -149,67 -149,149 z"
       class="fil4" /><path
       style="fill:#a41c5e"
       inkscape:connector-curvature="0"
       id="path25"
       d="M 10218,12782 H 4082 c 132,165 336,272 564,272 h 5008 c 227,0 431,-107 564,-272 z"
       class="fil3" /><g
       id="g39"><polygon
         style="fill:#a41c5e"
         id="polygon27"
         points="5091,11151 6204,11151 6204,10263 5091,10263 "
         class="fil3" /><polygon
         style="fill:#fefefe"
         id="polygon29"
         points="6593,11151 7706,11151 7706,10263 6593,10263 "
         class="fil5" /><polygon
         style="fill:#fefefe"
         id="polygon31"
         points="8095,11151 9209,11151 9209,10263 8095,10263 "
         class="fil5" /><polygon
         style="fill:#fefefe"
         id="polygon33"
         points="5091,12425 6204,12425 6204,11537 5091,11537 "
         class="fil5" /><polygon
         style="fill:#fefefe"
         id="polygon35"
         points="6593,12425 7706,12425 7706,11537 6593,11537 "
         class="fil5" /><polygon
         style="fill:#fefefe"
         id="polygon37"
         points="8095,12425 9209,12425 9209,11537 8095,11537 "
         class="fil5" /></g></g><rect
     style="fill:none"
     id="rect67"
     height="12277"
     width="26077"
     y="4949"
     x="2282"
     class="fil6" /></svg>